<svg xmlns="http://www.w3.org/2000/svg" width="31.322" height="31.322">
  <defs>
    <linearGradient id="a" x1="-.089" x2="-.047" y1="1.249" y2="1.229" gradientUnits="objectBoundingBox">
      <stop offset="0" stop-color="#fff" stop-opacity=".2"/>
      <stop offset="1" stop-color="#fff" stop-opacity="0"/>
    </linearGradient>
  </defs>
  <path fill="#303c42" d="M15.661 0a15.661 15.661 0 1 0 15.661 15.661A15.679 15.679 0 0 0 15.661 0z"/>
  <path fill="#e53935" d="M15.66 1.305a14.375 14.375 0 0 1 14.284 12.926 39.254 39.254 0 0 1-7.825.771 6.489 6.489 0 0 0-12.918 0 39.254 39.254 0 0 1-7.825-.771A14.375 14.375 0 0 1 15.66 1.305z"/>
  <circle cx="5.22" cy="5.22" r="5.22" fill="#455a64" transform="translate(10.441 10.441)"/>
  <path fill="#fff" d="M15.661 30.019A14.372 14.372 0 0 1 1.305 15.663c0-.036.005-.072.006-.108a41.114 41.114 0 0 0 7.89.749 6.489 6.489 0 0 0 12.921 0 41.114 41.114 0 0 0 7.89-.749c0 .036.006.072.006.108a14.372 14.372 0 0 1-14.357 14.356z"/>
  <ellipse cx="4" cy="3.5" fill="#303c42" rx="4" ry="3.5" transform="translate(12 12.175)"/>
  <circle cx="2.61" cy="2.61" r="2.61" fill="#f2f2f2" transform="translate(13.051 13.051)"/>
  <path fill="#fff" d="M13.568 16.45a2.6 2.6 0 0 1 4.5-1.786 2.607 2.607 0 1 0-4.3 2.783 2.594 2.594 0 0 1-.2-.997z" opacity=".2"/>
  <path fill="url(#a)" d="M15.661 0a15.661 15.661 0 1 0 15.661 15.661A15.679 15.679 0 0 0 15.661 0z"/>
  <path d="M27.206 14.682a28.67 28.67 0 0 0 2.737-.451 14.327 14.327 0 0 0-4.521-9.078 13.971 13.971 0 0 1 1.783 9.528zM30.011 15.553a31.61 31.61 0 0 1-3.087.474 14.314 14.314 0 0 1-23.652 6.851 14.343 14.343 0 0 0 26.745-7.217c-.001-.036-.006-.072-.006-.108z" opacity=".1"/>
</svg>
